<?xml version="1.0" encoding="utf-8"?>
<!-- Generator: Adobe Illustrator 25.0.1, SVG Export Plug-In . SVG Version: 6.00 Build 0)  -->
<svg version="1.1" id="Layer_1" xmlns="http://www.w3.org/2000/svg" xmlns:xlink="http://www.w3.org/1999/xlink" x="0px" y="0px"
	 viewBox="0 0 207.5 93.5" style="enable-background:new 0 0 207.5 93.5;" xml:space="preserve">
<g>
	<g>
		<path d="M127.1,16.5c0.2-0.7,0.5-1.4,0.9-2h-3.1V9.6h9.1V6.5h5.5v3.1h8.7v4.8H145c0.4,0.6,0.7,1.3,0.9,2.1
			c0.2,0.7,0.3,1.5,0.3,2.3c0,2.6-1,4.8-2.9,6.6c-1.9,1.8-4.2,2.7-6.9,2.7c-2.6,0-4.9-0.9-6.8-2.8c-1.9-1.9-2.9-4.1-2.9-6.6
			C126.8,17.9,126.9,17.2,127.1,16.5z M125.7,30.8h5.5v10h31.3v4.8h-36.7V30.8z M133.5,15.8c-0.9,0.9-1.3,1.9-1.3,3.1
			c0,1.2,0.4,2.2,1.3,3.1c0.9,0.9,1.9,1.3,3,1.3s2.1-0.4,3-1.3c0.8-0.9,1.2-1.9,1.2-3.1c0-1.2-0.4-2.2-1.3-3.1
			c-0.9-0.9-1.9-1.3-3-1.3C135.4,14.4,134.4,14.9,133.5,15.8z M162.4,18.3v10H157V8.7h5.5v4.8h4v4.8H162.4z"/>
		<path d="M207.5,25.2V30h-38.8v-4.8H207.5z M181.8,22v-8.4h-12.6V8.7h18.1V22H181.8z M188.1,36.8l-11.5,9.6h-7.2l16-13.6h5.6
			l16,13.6h-7.3L188.1,36.8z M201.2,22v-8.4h-11.4V8.7h16.9V22H201.2z"/>
		<path d="M139.5,56h8.7v4.8h-7l7.8,16.3h-5.5l-6.8-14.3l-6.8,14.3h-5.5l7.7-16.3h-6.9V56h8.7v-3.6h5.5V56z M162.4,65.8v26.5H157
			V54.6h5.5V61h4v4.8H162.4z"/>
		<path d="M172.9,57.2c2.3-2.2,5-3.3,8.3-3.3c3.2,0,6,1.1,8.2,3.3c2.3,2.2,3.4,4.9,3.4,8c0,3.2-1.1,5.9-3.4,8.1
			c-2.3,2.2-5,3.3-8.2,3.3c-3.2,0-6-1.1-8.3-3.3c-2.3-2.2-3.4-4.9-3.4-8.1C169.5,62.1,170.6,59.4,172.9,57.2z M176.8,60.6
			c-1.2,1.3-1.8,2.8-1.8,4.7c0,1.8,0.6,3.3,1.8,4.6c1.2,1.3,2.7,1.9,4.3,1.9c1.7,0,3.1-0.6,4.3-1.9c1.2-1.3,1.8-2.8,1.8-4.6
			c0-1.8-0.6-3.4-1.8-4.7c-1.2-1.3-2.7-1.9-4.3-1.9C179.5,58.7,178.1,59.3,176.8,60.6z M201.6,54.6h5.5v37.7h-5.5V54.6z"/>
	</g>
	<g>
		<path d="M112.1,93.5H3.5C1.6,93.5,0,91.9,0,90V15c0-1.9,1.6-3.5,3.5-3.5h108.6c1.9,0,3.5,1.6,3.5,3.5v75
			C115.6,91.9,114,93.5,112.1,93.5z M7,86.5h101.6v-68H7V86.5z"/>
		<path d="M43.2,83.4c-17.1,0-30.9-13.9-30.9-30.9c0-17.1,13.9-30.9,30.9-30.9c17.1,0,30.9,13.9,30.9,30.9
			C74.1,69.6,60.2,83.4,43.2,83.4z M43.2,28.6c-13.2,0-23.9,10.7-23.9,23.9c0,13.2,10.7,23.9,23.9,23.9c13.2,0,23.9-10.7,23.9-23.9
			C67.1,39.3,56.4,28.6,43.2,28.6z"/>
		<path d="M43.2,70.6c-10,0-18.1-8.1-18.1-18.1s8.1-18.1,18.1-18.1s18.1,8.1,18.1,18.1S53.2,70.6,43.2,70.6z M43.2,40.4
			c-6.7,0-12.1,5.4-12.1,12.1c0,6.7,5.4,12.1,12.1,12.1s12.1-5.4,12.1-12.1C55.3,45.8,49.8,40.4,43.2,40.4z"/>
		<path d="M102.4,41.6H82.9c-1.9,0-3.5-1.6-3.5-3.5V24.3c0-1.9,1.6-3.5,3.5-3.5h19.5c1.9,0,3.5,1.6,3.5,3.5v13.8
			C105.9,40,104.3,41.6,102.4,41.6z M86.4,34.6h12.5v-6.8H86.4V34.6z"/>
		<path d="M112.1,83H70.7c-1.4,0-2.7-0.9-3.2-2.2c-0.5-1.3-0.2-2.8,0.8-3.8c5-4.8,6.5-7.3,8.7-11.9c0.6-1.2,1.8-2,3.2-2h32
			c1.9,0,3.5,1.6,3.5,3.5v12.9C115.6,81.4,114,83,112.1,83z M78.6,76h29.9v-5.9H82.3C81.2,72.3,80.1,74.1,78.6,76z"/>
		<path d="M91.3,18.5H24.3c-1.4,0-2.6-0.8-3.2-2c-0.6-1.2-0.4-2.7,0.5-3.7L31,1.3C31.7,0.5,32.7,0,33.7,0h48.2c1,0,2,0.5,2.7,1.3
			L94,12.8c0.9,1,1,2.5,0.5,3.7C93.9,17.7,92.7,18.5,91.3,18.5z M31.7,11.5h52.3L80.2,7H35.4L31.7,11.5z"/>
	</g>
</g>
</svg>
